<svg xmlns="http://www.w3.org/2000/svg" viewBox="0 0 32 32">
  <rect width="32" height="32" rx="6" fill="#1a1208"/>
  <!-- hat brim -->
  <rect x="4" y="14" width="24" height="3" rx="1" fill="#3d1e0c"/>
  <!-- hat top -->
  <rect x="9" y="6" width="14" height="9" rx="1" fill="#3d1e0c"/>
  <!-- hat band -->
  <rect x="9" y="13" width="14" height="2" fill="#d4a642"/>
  <!-- skull eyes -->
  <rect x="11" y="18" width="4" height="4" rx="1" fill="#1a1208"/>
  <rect x="17" y="18" width="4" height="4" rx="1" fill="#1a1208"/>
  <!-- skull nose -->
  <rect x="15" y="23" width="2" height="2" fill="#1a1208"/>
  <!-- skull face -->
  <rect x="9" y="16" width="14" height="12" rx="2" fill="#e8dcc8"/>
  <!-- redraw eyes on face -->
  <rect x="11" y="18" width="4" height="4" rx="1" fill="#1a1208"/>
  <rect x="17" y="18" width="4" height="4" rx="1" fill="#1a1208"/>
  <!-- teeth -->
  <rect x="11" y="24" width="2" height="3" fill="#1a1208"/>
  <rect x="14" y="24" width="2" height="3" fill="#1a1208"/>
  <rect x="17" y="24" width="2" height="3" fill="#1a1208"/>
  <rect x="20" y="24" width="2" height="3" fill="#1a1208"/>
</svg>
